<svg width="18" height="18" fill="none" xmlns="http://www.w3.org/2000/svg"><path d="M17.872 4.435a.528.528 0 00-.398-.181H4.102l-.38-2.927A1.577 1.577 0 002.16 0H.528a.527.527 0 100 1.055H2.16c.26 0 .479.186.519.426l.436 3.35a.515.515 0 00.005.04l.984 7.5c.026.162.089.31.16.45A1.58 1.58 0 003.2 14.309c0 .872.71 1.575 1.582 1.575h.625c-.06.165-.097.348-.097.534 0 .872.71 1.582 1.582 1.582.872 0 1.582-.71 1.582-1.582 0-.186-.038-.369-.098-.534h3.394c-.06.165-.097.348-.097.534 0 .872.71 1.582 1.582 1.582.872 0 1.582-.71 1.582-1.582a1.56 1.56 0 00-.097-.527h1.679a.527.527 0 100-1.055H4.782a.528.528 0 01-.527-.527c0-.291.236-.528.575-.53l3.204-.291 7.621-.69a1.586 1.586 0 001.42-1.329l.92-6.615a.528.528 0 00-.123-.419zM5.712 12.64a.517.517 0 01-.566-.423L4.52 7.418h1.889l.435 5.119-1.13.102zm4.379-.394l-1.96.175-.03.002-.208.02-.427-5.024h2.625v4.827zm3.204-.291l-2.15.195V7.418h2.584l-.434 4.535zm2.738-.645a.528.528 0 01-.473.439l-1.197.108.425-4.438h1.784l-.54 3.891z" fill="#000"/></svg>