<svg width="300" height="68" fill="none" xmlns="http://www.w3.org/2000/svg"><path d="M232.305 67.836h-10.509V20.56h10.509v47.275zM22.81 30.254a11.555 11.555 0 00-4.73.943 11.639 11.639 0 00-3.946 2.795c-2.362 2.464-3.543 5.873-3.543 10.186s1.18 7.804 3.584 10.31a11.812 11.812 0 004.003 2.826c1.515.651 3.149.975 4.796.952 3.095 0 5.58-.863 7.454-2.547a12.537 12.537 0 003.706-5.75l9.288 3.41c-1.222 3.983-3.585 7.433-7.088 10.308C32.831 66.563 28.391 68 22.974 68c-6.518 0-11.976-2.259-16.375-6.818C2.199 56.622 0 50.955 0 44.178c0-6.86 2.159-12.527 6.517-17.004 4.359-4.477 9.736-6.736 16.212-6.736 5.54 0 10.061 1.437 13.564 4.312a19.727 19.727 0 016.803 10.392l-9.491 3.491a12.029 12.029 0 00-3.503-5.915c-1.788-1.642-4.192-2.464-7.291-2.464zm38.05 24.11a12.623 12.623 0 004.101 2.793 12.537 12.537 0 009.707.023 12.621 12.621 0 004.114-2.775c2.444-2.505 3.666-5.956 3.666-10.433 0-4.394-1.222-7.803-3.666-10.268a12.732 12.732 0 00-8.961-3.696c-3.352 0-6.57 1.327-8.962 3.696-2.444 2.465-3.666 5.874-3.666 10.268 0 4.395 1.223 7.886 3.666 10.392zm8.96-33.926c6.803 0 12.424 2.218 16.824 6.654 4.399 4.435 6.64 10.062 6.64 16.922 0 6.859-2.2 12.486-6.64 16.963-4.44 4.477-10.02 6.694-16.823 6.694-6.721 0-12.302-2.218-16.742-6.694-4.44-4.477-6.64-10.145-6.64-16.963 0-6.819 2.2-12.446 6.64-16.922 4.44-4.477 9.98-6.654 16.742-6.654zm50.877.287v10.802a24.604 24.604 0 00-3.463-.287c-7.983 0-11.935 3.943-11.935 12.691v23.74h-10.59v-47.11h10.305v7.557a11.778 11.778 0 015.01-5.627 15.014 15.014 0 017.862-2.053c.944-.008 1.887.088 2.811.287zm14.46 18.442h23.584a9.893 9.893 0 00-.895-3.844 9.82 9.82 0 00-2.323-3.18c-1.996-1.889-4.888-2.834-8.635-2.834-3.422 0-6.191.986-8.269 2.958-2.077 1.971-3.259 4.288-3.462 6.9zm24.847 11.582l9.654 2.834c-1.385 4.067-3.951 7.435-7.739 10.104-3.789 2.67-8.432 3.984-13.972 3.984-6.843 0-12.627-2.176-17.393-6.49-4.766-4.312-7.169-10.103-7.169-17.373 0-6.818 2.322-12.445 6.965-16.799a23.157 23.157 0 0116.416-6.571c7.372 0 13.116 2.095 17.271 6.243 4.154 4.148 6.228 9.775 6.228 16.856 0 1.89-.082 2.998-.285 3.368h-35.112c.044 1.59.422 3.15 1.111 4.581a11.203 11.203 0 002.88 3.716 13.506 13.506 0 009.125 3.286c6.154.024 10.187-2.563 12.02-7.739zm23.259 17.087h-10.754V0h10.835v27.313c1.141-1.889 3.014-3.49 5.621-4.764a19.924 19.924 0 018.962-1.93c6.721 0 11.975 2.176 15.763 6.571 3.789 4.395 5.662 9.98 5.662 16.799 0 6.941-1.996 12.61-5.947 17.086-3.951 4.477-9.246 6.654-15.845 6.654s-11.364-2.341-14.297-7.065v7.172zm21.466-13.431c2.322-2.547 3.462-5.997 3.462-10.35 0-4.354-1.14-7.763-3.421-10.269-2.281-2.505-5.295-3.737-9.043-3.737-3.625 0-6.599 1.232-8.961 3.737-2.363 2.506-3.503 5.915-3.503 10.269 0 4.353 1.181 7.721 3.503 10.309 2.322 2.587 5.336 3.86 8.961 3.86 3.707 0 6.68-1.273 9.002-3.82zM282 67.795h-46.354v-9.283l29.287-28.586h-29.776V20.56h46.762v9.011l-29.654 28.833H282v9.406-.016z" fill="#000"/><path d="M287.172 65.828a7.209 7.209 0 01-2.171-5.288 7.302 7.302 0 012.171-5.328 7.037 7.037 0 015.288-2.21 7.545 7.545 0 017.538 7.538 7.038 7.038 0 01-2.21 5.288 7.365 7.365 0 01-5.328 2.17 7.206 7.206 0 01-5.288-2.17z" fill="#BFBFBF"/></svg>